<svg xmlns="http://www.w3.org/2000/svg" viewBox="0 0 32 32" shape-rendering="crispEdges">
  <rect width="32" height="32" fill="#050505"/>

  <!-- Gold border -->
  <rect x="1" y="1" width="30" height="30" fill="none" stroke="#b8965a" stroke-width="1"/>

  <!-- A letterform (solid gold, no stripes) -->
  <rect x="7" y="7" width="1" height="1" fill="#b8965a"/>
  <rect x="8" y="7" width="1" height="1" fill="#b8965a"/>
  <rect x="9" y="7" width="1" height="1" fill="#b8965a"/>

  <rect x="6" y="8" width="2" height="1" fill="#b8965a"/>
  <rect x="9" y="8" width="2" height="1" fill="#b8965a"/>

  <rect x="5" y="9" width="2" height="1" fill="#b8965a"/>
  <rect x="10" y="9" width="2" height="1" fill="#b8965a"/>

  <rect x="5" y="10" width="2" height="1" fill="#b8965a"/>
  <rect x="10" y="10" width="2" height="1" fill="#b8965a"/>

  <rect x="4" y="11" width="2" height="1" fill="#b8965a"/>
  <rect x="11" y="11" width="2" height="1" fill="#b8965a"/>

  <rect x="4" y="12" width="2" height="1" fill="#b8965a"/>
  <rect x="11" y="12" width="2" height="1" fill="#b8965a"/>

  <rect x="3" y="13" width="11" height="1" fill="#b8965a"/>
  <rect x="3" y="14" width="11" height="1" fill="#b8965a"/>

  <rect x="3" y="15" width="2" height="1" fill="#b8965a"/>
  <rect x="12" y="15" width="2" height="1" fill="#b8965a"/>

  <rect x="3" y="16" width="2" height="1" fill="#b8965a"/>
  <rect x="12" y="16" width="2" height="1" fill="#b8965a"/>

  <rect x="3" y="17" width="3" height="1" fill="#b8965a"/>
  <rect x="11" y="17" width="3" height="1" fill="#b8965a"/>

  <rect x="3" y="18" width="3" height="1" fill="#b8965a"/>
  <rect x="11" y="18" width="3" height="1" fill="#b8965a"/>

  <rect x="2" y="19" width="4" height="1" fill="#b8965a"/>
  <rect x="11" y="19" width="4" height="1" fill="#b8965a"/>

  <!-- C letterform (solid gold, no stripes) -->
  <rect x="21" y="7" width="7" height="1" fill="#b8965a"/>
  <rect x="20" y="8" width="8" height="1" fill="#b8965a"/>

  <rect x="19" y="9" width="3" height="1" fill="#b8965a"/>
  <rect x="27" y="9" width="2" height="1" fill="#b8965a"/>

  <rect x="18" y="10" width="3" height="1" fill="#b8965a"/>
  <rect x="18" y="11" width="3" height="1" fill="#b8965a"/>
  <rect x="18" y="12" width="3" height="1" fill="#b8965a"/>
  <rect x="18" y="13" width="3" height="1" fill="#b8965a"/>
  <rect x="18" y="14" width="3" height="1" fill="#b8965a"/>
  <rect x="18" y="15" width="3" height="1" fill="#b8965a"/>
  <rect x="18" y="16" width="3" height="1" fill="#b8965a"/>

  <rect x="19" y="17" width="3" height="1" fill="#b8965a"/>
  <rect x="27" y="17" width="2" height="1" fill="#b8965a"/>

  <rect x="20" y="18" width="8" height="1" fill="#b8965a"/>
  <rect x="21" y="19" width="7" height="1" fill="#b8965a"/>
</svg>
